<svg xmlns="http://www.w3.org/2000/svg" viewBox="0 0 64 64">
  <defs>
    <linearGradient id="bg" x1="0" x2="1" y1="0" y2="1">
      <stop offset="0%" stop-color="#1d4ed8"/>
      <stop offset="100%" stop-color="#0f172a"/>
    </linearGradient>
  </defs>
  <rect width="64" height="64" rx="16" fill="url(#bg)"/>
  <path d="M16 38c0-2.2 1.8-4 4-4h5l7-11c1.1-1.7 3.5-2.2 5.2-1l1.3.9c1.7 1.1 2.2 3.5 1 5.2L35 34h9c2.2 0 4 1.8 4 4v8c0 1.1-.9 2-2 2h-3.5a6.5 6.5 0 0 1-13 0H26a6.5 6.5 0 0 1-13 0H10c-1.1 0-2-.9-2-2v-8c0-2.2 1.8-4 4-4h4Zm6.5 13a3.5 3.5 0 1 0 0-7 3.5 3.5 0 0 0 0 7Zm17 0a3.5 3.5 0 1 0 0-7 3.5 3.5 0 0 0 0 7ZM28 34h7l4.5-7H32l-4 7Z" fill="#fff"/>
</svg>

